<svg width="512" height="512" viewBox="0 0 512 512" fill="none" xmlns="http://www.w3.org/2000/svg">
<g clip-path="url(#clip0_1_6)">
<path d="M256 512C397.385 512 512 397.385 512 256C512 114.615 397.385 0 256 0C114.615 0 0 114.615 0 256C0 397.385 114.615 512 256 512Z" fill="url(#paint0_linear_1_6)"/>
<path fill-rule="evenodd" clip-rule="evenodd" d="M115.88 253.298C190.509 220.783 240.274 199.347 265.174 188.991C336.268 159.42 351.04 154.283 360.669 154.114C362.787 154.077 367.522 154.601 370.589 157.09C373.179 159.192 373.891 162.03 374.232 164.023C374.573 166.015 374.998 170.554 374.66 174.101C370.808 214.58 354.138 312.814 345.657 358.152C342.068 377.336 335.002 383.768 328.162 384.398C313.295 385.766 302.006 374.573 287.608 365.134C265.076 350.365 252.347 341.171 230.477 326.758C205.202 310.102 221.586 300.948 235.991 285.987C239.76 282.072 305.262 222.493 306.53 217.088C306.688 216.412 306.836 213.893 305.339 212.562C303.842 211.232 301.633 211.687 300.038 212.048C297.779 212.561 261.784 236.352 192.056 283.421C181.839 290.436 172.585 293.855 164.294 293.676C155.153 293.478 137.571 288.507 124.5 284.258C108.468 279.047 95.7258 276.292 96.8353 267.441C97.4133 262.831 103.762 258.117 115.88 253.298Z" fill="white"/>
</g>
<defs>
<linearGradient id="paint0_linear_1_6" x1="25600" y1="0" x2="25600" y2="50820.3" gradientUnits="userSpaceOnUse">
<stop stop-color="#2AABEE"/>
<stop offset="1" stop-color="#229ED9"/>
</linearGradient>
<clipPath id="clip0_1_6">
<rect width="512" height="512" fill="white"/>
</clipPath>
</defs>
</svg>
