<svg width="800" height="637" viewBox="0 0 800 637" fill="none" xmlns="http://www.w3.org/2000/svg">
<path opacity="0.31" d="M700.173 444.589C734.971 416.34 766.689 380.869 777.097 337.15C799.434 243.164 716.917 155.832 623.674 177.851C592.168 185.285 560.131 197.321 528.307 190.914C497.155 184.648 472.305 161.886 447.879 141.425C406.319 106.662 360.052 75.7227 307.766 61.9168C192.257 31.4729 76.3225 106.591 73.4551 229.783C71.7913 300.972 109.74 366.744 152.892 420.8C212.222 495.139 296.297 542.398 391.062 550.788C500.943 560.487 616.134 512.804 700.208 444.589H700.173Z" fill="url(#paint0_linear_2239_1664)"/>
<path d="M717.73 398.813C718.827 398.884 719.925 398.919 721.022 398.99C735.217 399.662 749.838 399.769 763.148 394.777C817.274 374.529 791.184 295.198 765.378 262.488C734.97 223.973 684.985 205.388 636.983 216.752C605.477 224.186 573.44 236.222 541.616 229.779C510.464 223.513 485.613 200.751 461.188 180.29C419.628 145.527 373.361 114.588 321.075 100.782C205.53 70.3028 89.5959 145.421 86.7285 268.612C85.0647 339.801 123.013 405.574 166.166 459.63C199.618 501.543 286.242 589.901 347.448 562.006C368.44 552.413 383.379 533.261 395.769 513.827C413.61 485.861 428.124 455.665 448.302 429.363C468.48 403.025 495.844 380.157 528.518 374.387C557.44 369.254 586.751 377.998 615.389 384.511C649.019 392.193 683.286 396.972 717.73 398.778V398.813Z" fill="url(#paint1_linear_2239_1664)"/>
<path style="mix-blend-mode:multiply" opacity="0.37" d="M717.624 417.892C752.422 389.643 784.14 354.172 794.548 310.453C816.885 216.467 734.368 129.135 641.125 151.154C609.619 158.588 577.583 170.624 545.758 164.181C514.606 157.915 489.756 135.153 465.33 114.692C423.771 79.9297 377.503 48.9903 325.218 35.1843C209.673 4.77592 93.7736 79.8943 90.9063 203.086C89.2425 274.275 127.191 340.047 170.343 394.103C229.673 468.442 313.748 515.701 408.513 524.091C518.394 533.79 633.585 486.107 717.66 417.892H717.624Z" stroke="url(#paint2_linear_2239_1664)" stroke-miterlimit="10"/>
<g style="mix-blend-mode:multiply" opacity="0.5">
<path d="M455.666 531.701C496.234 493.08 523.244 425.785 586.504 418.316C646.967 411.165 727.289 463.804 773.202 402.209C800.602 365.393 786.194 319.019 759.007 287.159C736.386 260.645 704.562 245.954 673.693 231.476C640.878 216.077 611.425 195.297 586.433 168.995C567.175 148.711 529.333 92.496 495.385 111.47C483.526 118.09 476.233 130.657 471.171 143.259C460.374 170.163 457.117 199.687 445.789 226.378C434.462 253.069 411.204 278.168 382.176 278.274C359.06 278.38 339.201 262.981 320.899 248.857C278.809 216.466 234.382 187.12 188.079 161.136C162.343 146.693 133.563 132.887 104.535 138.091C61.5601 145.808 8.99144 200.996 13.3102 245.813C15.0448 263.654 23.3992 280.221 33.8421 294.806C60.4273 331.976 100.5 358.419 124.076 397.536C158.379 454.494 153.847 531.878 199.088 580.624C240.258 624.98 291.659 613.616 343.909 597.226C383.096 584.943 420.549 563.136 451.807 535.277C453.082 534.144 454.356 532.976 455.631 531.772L455.666 531.701Z" fill="url(#paint3_linear_2239_1664)"/>
</g>
<path d="M343.378 86.0913C359.556 98.5874 383.167 100.995 399.876 87.2595C421.293 69.6658 421.364 35.1156 402.991 15.2917C363.273 -27.5067 302.775 28.4604 332.369 74.1969C335.342 78.7989 339.095 82.7991 343.378 86.0913Z" fill="url(#paint4_linear_2239_1664)"/>
<path style="mix-blend-mode:multiply" opacity="0.87" d="M151.335 588.872C163.902 602.394 180.929 606.678 191.69 594.607C205.532 579.137 202.771 545.436 188.044 524.55C156.255 479.486 117.67 529.258 142.52 576.34C145.034 581.084 148.007 585.296 151.335 588.872Z" fill="url(#paint5_linear_2239_1664)"/>
<path d="M454.676 118.799C465.048 122.976 476.376 120.746 480.659 111.082C486.181 98.6918 477.898 80.5317 464.765 72.8499C436.374 56.2474 422.32 94.55 446.817 114.161C449.295 116.144 451.95 117.666 454.676 118.799Z" fill="url(#paint6_linear_2239_1664)"/>
<path d="M18.302 365.183C25.7006 371.732 36.2143 373.36 43.3651 366.776C52.5336 358.351 51.9672 341.04 43.4713 330.81C25.0988 308.685 -0.74309 335.624 13.2044 359.059C14.6204 361.395 16.355 363.484 18.302 365.218V365.183Z" fill="url(#paint7_linear_2239_1664)"/>
<path d="M615.532 202.343C621.55 206.98 630.294 207.865 636.489 202.767C644.418 196.218 644.454 183.404 637.657 176.076C622.93 160.181 600.487 180.961 611.461 197.918C612.558 199.617 613.974 201.104 615.532 202.343Z" fill="url(#paint8_linear_2239_1664)"/>
<path d="M72.2505 363.659C74.7993 365.642 78.5163 365.996 81.1359 363.836C84.4989 361.075 84.5343 355.624 81.6315 352.508C75.3657 345.782 65.8432 354.597 70.5159 361.783C70.9761 362.491 71.5779 363.128 72.2505 363.659Z" stroke="url(#paint9_linear_2239_1664)" stroke-miterlimit="10"/>
<path d="M9.38067 271.767C15.8588 276.758 25.346 277.679 32.0011 272.192C40.5679 265.112 40.5679 251.306 33.1693 243.376C17.2394 226.278 -6.93863 248.757 4.9557 267.023C6.15929 268.864 7.64608 270.457 9.38067 271.767Z" stroke="url(#paint10_linear_2239_1664)" stroke-miterlimit="10"/>
<path d="M623.78 453.471C626.329 455.454 630.046 455.807 632.665 453.648C636.028 450.887 636.064 445.435 633.161 442.32C626.895 435.559 617.372 444.409 622.045 451.595C622.505 452.303 623.107 452.94 623.78 453.471Z" stroke="url(#paint11_linear_2239_1664)" stroke-miterlimit="10"/>
<path d="M469.331 38.0198C473.508 41.2411 479.597 41.8429 483.88 38.3384C489.402 33.8072 489.402 24.9218 484.694 19.7889C474.464 8.77953 458.888 23.1872 466.499 34.9754C467.277 36.1436 468.233 37.2056 469.331 38.0552V38.0198Z" stroke="url(#paint12_linear_2239_1664)" stroke-miterlimit="10"/>
<path d="M347.202 633.229C349.751 635.211 353.467 635.565 356.087 633.406C359.45 630.645 359.485 625.193 356.583 622.078C350.317 615.317 340.794 624.167 345.467 631.353C345.927 632.061 346.529 632.698 347.202 633.229Z" stroke="url(#paint13_linear_2239_1664)" stroke-miterlimit="10"/>
<path d="M675.924 127.862C678.473 129.845 682.19 130.199 684.81 128.039C688.173 125.278 688.208 119.827 685.305 116.711C679.04 109.985 669.517 118.8 674.19 125.986C674.65 126.694 675.252 127.331 675.924 127.862Z" stroke="url(#paint14_linear_2239_1664)" stroke-miterlimit="10"/>
<path style="mix-blend-mode:multiply" opacity="0.5" d="M375.626 146.765C326.987 115.79 260.081 115.011 216.681 157.774C160.997 212.679 169.493 309.71 226.168 360.721C348.546 470.886 504.375 298.312 409.575 177.386C400.052 165.244 388.477 154.942 375.626 146.765Z" fill="url(#paint15_linear_2239_1664)"/>
<defs>
<linearGradient id="paint0_linear_2239_1664" x1="708.702" y1="470.773" x2="88.2923" y2="149.596" gradientUnits="userSpaceOnUse">
<stop stop-color="#662D90"/>
<stop offset="1" stop-color="#00ADEE"/>
</linearGradient>
<linearGradient id="paint1_linear_2239_1664" x1="714.843" y1="507.952" x2="100.659" y2="189.997" gradientUnits="userSpaceOnUse">
<stop stop-color="#662D90"/>
<stop offset="1" stop-color="#00ADEE"/>
</linearGradient>
<linearGradient id="paint2_linear_2239_1664" x1="89.0655" y1="276.93" x2="800" y2="276.93" gradientUnits="userSpaceOnUse">
<stop stop-color="#662D90"/>
<stop offset="1" stop-color="#00ADEE"/>
</linearGradient>
<linearGradient id="paint3_linear_2239_1664" x1="636.391" y1="565.431" x2="96.5224" y2="112.113" gradientUnits="userSpaceOnUse">
<stop stop-color="#662D90"/>
<stop offset="1" stop-color="#00ADEE"/>
</linearGradient>
<linearGradient id="paint4_linear_2239_1664" x1="351.292" y1="54.2548" x2="439.424" y2="29.233" gradientUnits="userSpaceOnUse">
<stop stop-color="#662D90"/>
<stop offset="1" stop-color="#00ADEE"/>
</linearGradient>
<linearGradient id="paint5_linear_2239_1664" x1="137.244" y1="563.283" x2="198.032" y2="546.025" gradientUnits="userSpaceOnUse">
<stop stop-color="#662D90"/>
<stop offset="1" stop-color="#00ADEE"/>
</linearGradient>
<linearGradient id="paint6_linear_2239_1664" x1="452.793" y1="99.3081" x2="520.906" y2="47.1183" gradientUnits="userSpaceOnUse">
<stop stop-color="#662D90"/>
<stop offset="1" stop-color="#00ADEE"/>
</linearGradient>
<linearGradient id="paint7_linear_2239_1664" x1="18.302" y1="362.847" x2="63.9324" y2="301.216" gradientUnits="userSpaceOnUse">
<stop stop-color="#662D90"/>
<stop offset="1" stop-color="#00ADEE"/>
</linearGradient>
<linearGradient id="paint8_linear_2239_1664" x1="609.233" y1="193.129" x2="641.925" y2="183.847" gradientUnits="userSpaceOnUse">
<stop stop-color="#662D90"/>
<stop offset="1" stop-color="#00ADEE"/>
</linearGradient>
<linearGradient id="paint9_linear_2239_1664" x1="67.507" y1="357.677" x2="85.5254" y2="357.677" gradientUnits="userSpaceOnUse">
<stop stop-color="#662D90"/>
<stop offset="1" stop-color="#00ADEE"/>
</linearGradient>
<linearGradient id="paint10_linear_2239_1664" x1="-0.000273823" y1="256.616" x2="40.3201" y2="256.616" gradientUnits="userSpaceOnUse">
<stop stop-color="#662D90"/>
<stop offset="1" stop-color="#00ADEE"/>
</linearGradient>
<linearGradient id="paint11_linear_2239_1664" x1="619.036" y1="447.524" x2="637.055" y2="447.524" gradientUnits="userSpaceOnUse">
<stop stop-color="#662D90"/>
<stop offset="1" stop-color="#00ADEE"/>
</linearGradient>
<linearGradient id="paint12_linear_2239_1664" x1="462.711" y1="28.2848" x2="489.898" y2="28.2848" gradientUnits="userSpaceOnUse">
<stop stop-color="#662D90"/>
<stop offset="1" stop-color="#00ADEE"/>
</linearGradient>
<linearGradient id="paint13_linear_2239_1664" x1="342.458" y1="627.282" x2="360.477" y2="627.282" gradientUnits="userSpaceOnUse">
<stop stop-color="#662D90"/>
<stop offset="1" stop-color="#00ADEE"/>
</linearGradient>
<linearGradient id="paint14_linear_2239_1664" x1="671.181" y1="121.915" x2="689.199" y2="121.915" gradientUnits="userSpaceOnUse">
<stop stop-color="#662D90"/>
<stop offset="1" stop-color="#00ADEE"/>
</linearGradient>
<linearGradient id="paint15_linear_2239_1664" x1="429.664" y1="211.89" x2="188.509" y2="304.46" gradientUnits="userSpaceOnUse">
<stop stop-color="#662D90"/>
<stop offset="1" stop-color="#00ADEE"/>
</linearGradient>
</defs>
</svg>
