<svg width="453" height="512" viewBox="0 0 453 512" fill="none" xmlns="http://www.w3.org/2000/svg">
<path d="M176.467 201.638V181.687C169.541 180.59 162.546 179.988 155.534 179.888C87.6545 179.744 27.5555 223.732 7.1742 288.48C-13.2104 353.227 10.8505 423.707 66.57 462.476C24.8327 417.806 13.243 352.777 36.98 296.439C60.7154 240.102 115.346 202.971 176.467 201.638Z" fill="#25F4EE"/>
<path d="M180.228 427.643C218.18 427.592 249.377 397.692 251.039 359.776V21.423H312.855C311.593 14.3531 310.991 7.18131 311.056 0L226.508 0V338.026C225.102 376.135 193.833 406.321 155.698 406.384C144.302 406.287 133.092 403.484 122.991 398.207C129.537 407.276 138.134 414.671 148.081 419.786C158.028 424.902 169.043 427.594 180.228 427.643ZM428.31 136.224V117.418C405.561 117.426 383.316 110.712 364.368 98.1208C380.978 117.43 403.423 130.805 428.31 136.224Z" fill="#25F4EE"/>
<path d="M364.368 98.1207C345.704 76.8666 335.415 49.5453 335.423 21.2595H312.855C315.77 36.8984 321.841 51.7794 330.697 64.9942C339.554 78.2091 351.011 89.4805 364.368 98.1207ZM155.535 264.435C122.965 264.602 94.6899 286.915 86.9547 318.552C79.2195 350.19 94.0096 383.031 122.828 398.207C115.17 387.634 110.583 375.15 109.576 362.134C108.568 349.118 111.178 336.077 117.118 324.452C123.058 312.827 132.095 303.07 143.233 296.259C154.37 289.448 167.174 285.849 180.228 285.858C187.326 285.947 194.374 287.049 201.161 289.129V203.11C194.231 202.072 187.236 201.525 180.228 201.475H176.467V266.888C169.646 265.059 162.594 264.233 155.535 264.435Z" fill="#FE2C55"/>
<path d="M428.31 136.224V201.638C386.195 201.557 345.174 188.226 311.056 163.535V335.409C310.876 421.174 241.299 490.604 155.534 490.604C123.684 490.661 92.6003 480.833 66.5717 462.476C110.01 509.194 177.612 524.573 236.986 501.243C296.359 477.912 335.408 420.626 335.423 356.832V185.448C369.655 209.978 410.727 223.135 452.84 223.061V138.841C444.595 138.815 436.375 137.938 428.31 136.224Z" fill="#FE2C55"/>
<path d="M311.056 335.409V163.535C345.278 188.084 386.357 201.243 428.474 201.148V135.734C403.592 130.48 381.092 117.278 364.368 98.1207C351.011 89.4805 339.554 78.2091 330.697 64.9942C321.841 51.7794 315.77 36.8984 312.855 21.2595H251.039V359.776C249.802 389.978 229.573 416.081 200.637 424.817C171.7 433.553 140.407 423.005 122.664 398.534C93.8459 383.358 79.0558 350.517 86.791 318.879C94.5262 287.242 122.801 264.929 155.371 264.762C162.471 264.826 169.523 265.928 176.303 268.033V202.619C114.839 203.661 59.7964 240.919 35.9923 297.595C12.1898 354.272 24.1197 419.658 66.4081 464.275C92.6935 482.026 123.822 491.222 155.534 490.604C241.299 490.604 310.876 421.174 311.056 335.409Z" fill="black"/>
</svg>
